<svg id="svg" version="1.1" xmlns="http://www.w3.org/2000/svg" xmlns:xlink="http://www.w3.org/1999/xlink" width="400" height="315.7894736842105" viewBox="0, 0, 400,315.7894736842105"><g id="svgg"><path id="path0" d="M88.615 61.584 C 87.371 62.111,87.133 62.725,87.352 64.838 C 87.776 68.931,87.899 123.158,87.495 127.833 C 86.956 134.071,87.410 134.986,91.050 134.986 C 94.332 134.986,94.893 133.771,93.399 129.903 C 91.768 125.680,91.556 123.473,91.688 112.145 L 91.803 102.212 92.820 99.684 C 94.009 96.726,94.083 95.401,93.175 93.312 C 91.711 89.946,90.974 74.195,91.965 67.457 C 92.705 62.421,91.524 60.351,88.615 61.584 M243.802 61.950 C 241.814 63.514,243.570 68.031,248.048 72.870 C 251.712 76.830,257.891 89.077,262.133 100.790 C 262.731 102.441,264.542 106.564,266.158 109.953 C 267.774 113.341,269.640 117.512,270.306 119.220 C 272.184 124.038,273.617 125.148,275.107 122.937 C 276.625 120.685,276.072 118.359,273.389 115.710 C 271.841 114.182,270.539 111.711,267.744 104.998 C 266.639 102.346,265.244 99.199,264.643 98.007 C 264.043 96.814,262.194 92.397,260.534 88.191 C 250.806 63.535,247.794 58.811,243.802 61.950 M305.020 62.213 C 301.619 64.287,300.804 69.243,303.011 74.429 C 305.117 79.378,305.187 80.206,305.344 102.054 C 305.471 119.581,305.226 125.606,304.225 129.625 C 303.258 133.506,304.117 134.949,307.108 134.472 C 309.224 134.134,309.427 133.035,308.204 128.538 L 307.403 125.592 307.411 104.739 C 307.421 77.807,307.661 70.580,308.692 66.193 C 309.567 62.472,307.777 60.532,305.020 62.213 M158.044 72.557 C 156.379 75.719,157.876 82.413,161.471 87.888 C 162.472 89.413,163.607 91.624,163.992 92.803 C 164.967 95.783,165.739 96.668,168.917 98.448 C 171.759 100.040,173.564 101.628,176.413 105.046 C 177.309 106.119,181.337 110.586,185.366 114.973 C 192.231 122.446,192.753 123.101,193.674 125.376 C 194.215 126.711,194.786 128.116,194.944 128.498 C 195.807 130.581,203.476 132.085,203.476 130.171 C 203.476 127.478,201.206 124.434,198.065 122.912 C 195.244 121.546,194.543 120.927,190.974 116.646 C 189.136 114.442,185.333 110.243,182.523 107.315 C 176.680 101.226,175.390 99.618,174.603 97.445 C 173.501 94.404,173.339 94.060,172.591 93.171 C 172.175 92.677,170.956 91.812,169.883 91.250 C 165.104 88.748,161.287 83.026,159.721 76.015 C 158.896 72.328,158.545 71.603,158.044 72.557 M150.531 112.060 C 146.630 116.269,148.559 127.028,153.921 130.976 C 159.626 135.176,163.519 134.810,159.415 130.460 C 154.165 124.894,152.330 120.604,152.302 113.823 C 152.289 110.887,151.940 110.539,150.531 112.060 M202.614 192.008 C 202.245 192.571,202.054 193.471,202.054 194.642 C 202.054 196.526,202.175 196.761,205.032 200.415 C 206.984 202.910,210.086 209.861,213.377 219.115 C 214.901 223.399,215.093 224.419,214.923 227.346 C 214.750 230.339,215.100 231.369,217.234 234.142 C 220.694 238.639,225.603 251.417,226.080 257.172 C 226.345 260.363,227.216 261.611,229.179 261.611 C 231.766 261.611,231.902 259.818,229.660 255.264 C 228.770 253.455,227.287 249.771,226.365 247.077 C 221.927 234.103,220.010 229.001,218.151 225.209 C 217.700 224.290,216.783 221.833,216.112 219.747 C 214.012 213.224,211.803 206.872,210.667 204.094 C 210.065 202.624,208.885 199.516,208.044 197.188 C 205.911 191.284,204.174 189.627,202.614 192.008 M83.359 194.856 C 82.138 196.161,81.614 197.388,80.994 200.401 C 79.007 210.055,84.766 217.863,98.262 223.815 C 109.579 228.806,112.265 230.405,116.026 234.392 C 120.343 238.969,121.814 244.285,120.570 250.810 C 120.322 252.107,120.232 253.494,120.364 253.970 L 120.600 254.818 121.729 253.636 C 125.850 249.325,125.444 239.750,120.869 233.339 C 118.081 229.432,116.117 228.150,106.319 223.842 C 87.606 215.614,85.182 212.883,85.160 200.005 C 85.149 193.551,84.994 193.108,83.359 194.856 M292.800 198.341 C 281.980 206.505,280.004 235.018,289.266 249.336 C 293.166 255.365,299.360 259.323,296.012 253.647 C 292.784 248.174,289.713 238.448,289.074 231.674 C 288.195 222.351,289.269 214.812,293.391 201.378 C 294.794 196.806,294.799 196.833,292.800 198.341 M81.517 258.592 C 81.517 259.448,82.607 260.394,83.291 260.132 C 84.331 259.733,83.367 257.820,82.126 257.820 C 81.690 257.820,81.517 258.040,81.517 258.592 " stroke="none" fill="#79869a" fill-rule="evenodd"></path><path id="path1" d="M0.000 157.978 L 0.000 315.956 200.000 315.956 L 400.000 315.956 400.000 157.978 L 400.000 0.000 200.000 0.000 L 0.000 0.000 0.000 157.978 M99.052 55.593 C 102.313 55.739,108.919 55.711,114.536 55.528 C 130.399 55.012,132.680 55.951,133.677 63.410 C 135.352 75.954,129.150 81.130,124.137 71.371 C 121.140 65.536,119.024 64.482,109.795 64.226 C 97.958 63.898,97.227 64.572,97.054 75.987 C 96.829 90.837,97.231 91.496,106.477 91.435 C 113.027 91.392,114.514 90.933,117.290 88.102 C 124.160 81.093,128.207 87.020,126.430 101.488 C 125.577 108.436,121.878 109.869,117.694 104.871 C 114.729 101.331,113.298 100.820,106.319 100.811 C 97.170 100.799,97.203 100.757,97.054 112.562 C 96.836 129.869,98.045 131.609,110.269 131.573 C 120.706 131.543,124.072 130.055,127.702 123.870 C 132.129 116.328,138.061 116.642,138.071 124.420 C 138.083 133.352,135.598 138.893,131.095 139.976 C 128.579 140.581,82.612 140.615,80.588 140.013 C 76.272 138.730,75.950 135.493,79.766 131.754 C 82.638 128.939,82.464 131.101,82.464 98.104 C 82.464 64.875,82.687 67.418,79.471 63.832 C 76.338 60.338,76.331 57.936,79.450 56.323 C 81.384 55.323,87.738 55.086,99.052 55.593 M182.622 55.946 C 190.214 57.214,196.908 65.916,196.062 73.416 C 195.366 79.589,191.387 85.407,184.651 90.102 C 179.028 94.022,179.008 95.142,184.448 101.318 C 198.273 117.015,199.395 117.932,201.996 115.648 C 206.175 111.979,205.920 105.766,201.397 101.064 C 196.022 95.478,198.702 92.836,209.753 92.826 C 221.285 92.816,223.895 95.402,218.313 101.309 C 215.409 104.381,214.848 105.451,212.515 112.348 C 211.403 115.635,210.115 119.178,209.653 120.219 C 207.439 125.212,208.245 126.650,215.236 130.184 C 220.795 132.993,221.479 133.633,221.483 136.028 C 221.491 140.905,211.849 141.720,201.806 137.690 C 197.719 136.050,196.479 136.113,191.647 138.199 C 173.724 145.937,151.677 141.298,145.380 128.464 C 140.447 118.410,143.598 108.197,154.423 99.146 C 158.223 95.970,158.768 94.428,157.102 91.573 C 156.628 90.762,155.635 89.056,154.896 87.782 C 147.416 74.893,153.678 57.334,166.351 55.661 C 168.706 55.350,180.270 55.553,182.622 55.946 M249.128 56.120 C 252.783 57.388,254.269 59.743,259.975 73.302 C 262.059 78.254,264.504 84.013,265.409 86.098 C 266.313 88.183,268.316 92.804,269.860 96.367 C 276.634 111.997,276.872 112.000,283.379 96.524 C 286.738 88.537,290.033 81.158,291.731 77.824 C 292.190 76.923,293.623 73.350,294.915 69.884 C 299.806 56.769,301.165 55.526,310.575 55.563 C 319.556 55.598,321.863 58.568,317.014 63.851 C 313.250 67.953,313.586 64.606,313.586 97.946 L 313.586 126.856 314.443 128.600 C 314.927 129.587,316.124 131.142,317.200 132.183 C 319.994 134.886,320.334 136.899,318.297 138.687 C 316.640 140.142,315.456 140.337,307.177 140.514 C 295.374 140.767,292.575 139.882,292.575 135.897 C 292.575 134.534,292.686 134.394,296.802 130.592 C 299.275 128.308,299.263 128.417,299.131 108.784 C 299.010 90.899,298.913 89.665,297.598 89.247 C 296.056 88.758,294.250 91.951,289.104 104.265 C 288.268 106.264,286.493 110.458,285.159 113.586 C 283.824 116.714,282.092 120.908,281.310 122.907 C 276.240 135.862,271.428 135.942,266.034 123.163 C 264.764 120.155,262.947 115.916,261.995 113.744 C 261.044 111.572,259.024 106.951,257.508 103.476 C 252.489 91.973,252.149 91.233,251.150 89.677 C 249.804 87.580,249.200 87.290,248.372 88.343 C 247.296 89.711,247.235 90.823,247.235 109.321 L 247.235 127.172 248.183 128.887 C 248.920 130.220,249.602 130.907,251.242 131.969 C 255.962 135.025,255.845 138.586,250.978 139.997 C 248.514 140.712,237.582 140.619,235.633 139.867 C 231.757 138.371,231.459 135.760,234.759 132.202 C 238.794 127.850,238.547 130.072,238.547 98.132 C 238.547 66.589,238.680 67.921,235.134 64.091 C 231.557 60.228,232.241 56.853,236.784 55.938 C 237.667 55.760,238.673 55.548,239.021 55.468 C 240.486 55.127,247.588 55.586,249.128 56.120 M52.111 57.173 C 53.239 57.976,54.155 59.624,54.491 61.453 C 55.010 64.286,54.702 261.040,54.175 262.814 C 52.532 268.348,46.321 268.315,44.708 262.763 C 44.282 261.301,44.237 249.754,44.310 161.125 L 44.392 61.137 45.084 59.716 C 46.761 56.273,49.470 55.292,52.111 57.173 M172.670 62.367 C 165.100 64.749,162.858 74.248,168.016 82.084 C 171.640 87.591,177.315 86.134,181.632 78.589 C 186.055 70.859,180.076 60.037,172.670 62.367 M163.956 104.575 C 160.409 106.450,157.137 113.921,157.946 118.299 C 159.403 126.181,167.204 130.808,178.357 130.406 C 189.156 130.017,189.805 128.083,182.063 119.366 C 168.901 104.546,166.980 102.977,163.956 104.575 M110.021 182.648 C 112.299 183.066,114.523 183.248,116.815 183.203 C 123.450 183.075,124.797 184.992,124.868 194.672 C 124.920 201.746,123.973 204.107,121.082 204.107 C 119.172 204.107,117.943 203.045,115.324 199.132 C 111.592 193.556,109.526 191.905,104.752 190.686 C 94.876 188.165,88.282 194.918,90.351 205.435 C 91.304 210.281,93.186 211.830,104.107 216.753 C 118.674 223.320,123.181 226.493,126.943 232.831 C 134.902 246.237,127.500 263.470,112.082 267.430 C 109.685 268.046,92.668 268.196,90.047 267.625 C 89.092 267.416,86.454 267.141,84.186 267.012 C 76.956 266.602,75.732 265.178,74.860 256.165 C 74.040 247.674,75.338 243.602,78.866 243.602 C 80.813 243.602,82.155 244.885,83.784 248.305 C 90.896 263.229,109.330 264.948,114.488 251.169 C 117.652 242.714,113.947 236.937,101.738 231.291 C 80.755 221.589,75.513 216.029,75.513 203.476 C 75.513 187.242,89.400 178.861,110.021 182.648 M326.224 182.443 C 327.615 182.692,330.245 183.260,332.070 183.706 C 334.632 184.333,336.198 184.517,338.952 184.518 C 345.813 184.519,347.205 186.256,347.856 195.626 C 348.070 198.705,348.073 200.811,347.865 201.910 C 347.692 202.818,347.551 203.608,347.551 203.666 C 347.551 204.230,345.401 206.022,344.528 206.186 C 342.111 206.639,340.570 205.463,337.498 200.820 C 331.271 191.406,323.716 188.337,313.281 190.985 C 292.318 196.302,286.350 236.286,303.917 253.723 C 313.663 263.396,328.514 262.993,336.849 252.828 C 340.586 248.269,342.149 247.292,344.279 248.182 C 350.648 250.843,338.568 265.144,328.278 267.124 C 325.694 267.621,316.428 268.249,311.771 268.242 C 295.680 268.219,282.093 255.005,279.137 236.503 C 274.765 209.138,286.517 187.128,307.899 182.633 C 311.565 181.862,322.349 181.750,326.224 182.443 M206.997 184.542 C 209.516 185.827,212.946 193.338,218.818 210.427 C 220.908 216.510,223.839 224.579,224.786 226.856 C 225.860 229.442,229.487 239.254,231.968 246.288 C 234.492 253.446,235.589 255.637,238.027 258.390 C 244.001 265.137,241.493 267.820,229.308 267.717 C 217.861 267.619,215.093 265.612,218.552 259.918 C 220.363 256.938,220.361 255.246,218.540 249.881 C 214.110 236.825,214.119 236.832,202.054 236.822 C 189.050 236.811,188.973 236.863,185.265 247.942 C 183.019 254.653,182.846 256.300,184.042 259.581 C 186.207 265.517,184.231 267.701,176.657 267.743 C 169.876 267.780,167.141 266.489,167.141 263.251 C 167.141 261.532,167.360 261.155,170.359 257.730 C 173.419 254.235,175.037 250.564,180.888 233.851 C 182.552 229.096,184.400 224.241,184.994 223.062 C 185.587 221.883,186.632 219.304,187.315 217.331 C 187.998 215.358,189.120 212.464,189.807 210.900 C 190.494 209.336,192.369 204.155,193.974 199.387 C 199.019 184.400,201.400 181.686,206.997 184.542 M200.549 209.190 C 199.681 209.695,198.473 212.357,196.635 217.812 C 193.704 226.509,194.280 227.653,201.580 227.638 C 209.090 227.623,209.771 226.200,206.563 217.220 C 203.864 209.662,202.611 207.989,200.549 209.190 M151.465 253.844 C 159.439 256.244,157.774 267.598,149.447 267.600 C 144.792 267.601,141.913 264.563,142.244 259.996 C 142.573 255.445,146.991 252.497,151.465 253.844 M260.913 254.315 C 266.379 257.127,265.915 265.409,260.185 267.300 C 253.272 269.582,247.602 261.540,252.243 256.036 C 254.133 253.795,258.295 252.969,260.913 254.315 " stroke="none" fill="#fbfbfb" fill-rule="evenodd"></path><path id="path2" d="M81.978 55.605 C 76.636 56.390,75.663 59.585,79.471 63.832 C 82.687 67.418,82.464 64.875,82.464 98.104 C 82.464 131.101,82.638 128.939,79.766 131.754 C 75.950 135.493,76.272 138.730,80.588 140.013 C 82.612 140.615,128.579 140.581,131.095 139.976 C 135.598 138.893,138.083 133.352,138.071 124.420 C 138.061 116.642,132.129 116.328,127.702 123.870 C 124.072 130.055,120.706 131.543,110.269 131.573 C 98.045 131.609,96.836 129.869,97.054 112.562 C 97.203 100.757,97.170 100.799,106.319 100.811 C 113.298 100.820,114.729 101.331,117.694 104.871 C 121.878 109.869,125.577 108.436,126.430 101.488 C 128.207 87.020,124.160 81.093,117.290 88.102 C 114.514 90.933,113.027 91.392,106.477 91.435 C 97.231 91.496,96.829 90.837,97.054 75.987 C 97.227 64.572,97.958 63.898,109.795 64.226 C 119.024 64.482,121.140 65.536,124.137 71.371 C 129.150 81.130,135.352 75.954,133.677 63.410 C 132.680 55.951,130.399 55.012,114.536 55.528 C 108.919 55.711,102.313 55.739,99.052 55.593 C 92.126 55.283,84.132 55.289,81.978 55.605 M166.351 55.661 C 153.678 57.334,147.416 74.893,154.896 87.782 C 155.635 89.056,156.628 90.762,157.102 91.573 C 158.768 94.428,158.223 95.970,154.423 99.146 C 143.598 108.197,140.447 118.410,145.380 128.464 C 151.677 141.298,173.724 145.937,191.647 138.199 C 196.479 136.113,197.719 136.050,201.806 137.690 C 211.849 141.720,221.491 140.905,221.483 136.028 C 221.479 133.633,220.795 132.993,215.236 130.184 C 208.245 126.650,207.439 125.212,209.653 120.219 C 210.115 119.178,211.403 115.635,212.515 112.348 C 214.848 105.451,215.409 104.381,218.313 101.309 C 223.895 95.402,221.285 92.816,209.753 92.826 C 198.702 92.836,196.022 95.478,201.397 101.064 C 205.920 105.766,206.175 111.979,201.996 115.648 C 199.395 117.932,198.273 117.015,184.448 101.318 C 179.008 95.142,179.028 94.022,184.651 90.102 C 198.895 80.173,199.890 63.863,186.647 57.359 C 183.339 55.735,172.601 54.836,166.351 55.661 M239.021 55.468 C 238.673 55.548,237.667 55.760,236.784 55.938 C 232.241 56.853,231.557 60.228,235.134 64.091 C 238.680 67.921,238.547 66.589,238.547 98.132 C 238.547 130.072,238.794 127.850,234.759 132.202 C 231.459 135.760,231.757 138.371,235.633 139.867 C 237.582 140.619,248.514 140.712,250.978 139.997 C 255.845 138.586,255.962 135.025,251.242 131.969 C 249.602 130.907,248.920 130.220,248.183 128.887 L 247.235 127.172 247.235 109.321 C 247.235 90.823,247.296 89.711,248.372 88.343 C 249.200 87.290,249.804 87.580,251.150 89.677 C 252.149 91.233,252.489 91.973,257.508 103.476 C 259.024 106.951,261.044 111.572,261.995 113.744 C 262.947 115.916,264.764 120.155,266.034 123.163 C 271.428 135.942,276.240 135.862,281.310 122.907 C 282.092 120.908,283.824 116.714,285.159 113.586 C 286.493 110.458,288.268 106.264,289.104 104.265 C 294.250 91.951,296.056 88.758,297.598 89.247 C 298.913 89.665,299.010 90.899,299.131 108.784 C 299.263 128.417,299.275 128.308,296.802 130.592 C 292.686 134.394,292.575 134.534,292.575 135.897 C 292.575 139.882,295.374 140.767,307.177 140.514 C 315.456 140.337,316.640 140.142,318.297 138.687 C 320.334 136.899,319.994 134.886,317.200 132.183 C 316.124 131.142,314.927 129.587,314.443 128.600 L 313.586 126.856 313.586 97.946 C 313.586 64.606,313.250 67.953,317.014 63.851 C 321.863 58.568,319.556 55.598,310.575 55.563 C 301.165 55.526,299.806 56.769,294.915 69.884 C 293.623 73.350,292.190 76.923,291.731 77.824 C 290.033 81.158,286.738 88.537,283.379 96.524 C 276.872 112.000,276.634 111.997,269.860 96.367 C 268.316 92.804,266.313 88.183,265.409 86.098 C 264.504 84.013,262.059 78.254,259.975 73.302 C 252.966 56.646,252.116 55.719,243.602 55.447 C 241.430 55.377,239.368 55.387,239.021 55.468 M47.581 56.705 C 46.450 57.317,45.972 57.894,45.084 59.716 L 44.392 61.137 44.310 161.125 C 44.237 249.754,44.282 261.301,44.708 262.763 C 46.321 268.315,52.532 268.348,54.175 262.814 C 54.702 261.040,55.010 64.286,54.491 61.453 C 53.769 57.519,50.381 55.190,47.581 56.705 M92.638 58.805 C 96.040 59.521,96.888 60.652,95.924 63.181 C 94.471 66.993,94.398 67.560,94.242 76.153 C 94.019 88.426,94.345 90.365,97.197 93.731 C 98.933 95.780,98.923 96.273,97.112 98.313 C 94.280 101.501,94.313 101.319,94.313 113.744 C 94.313 126.961,94.394 127.420,97.515 131.765 C 98.621 133.306,99.526 134.776,99.526 135.033 C 99.526 138.085,85.726 138.480,84.056 135.476 C 83.618 134.689,83.644 134.374,84.364 131.685 L 85.150 128.752 85.150 97.946 L 85.150 67.141 84.439 64.751 C 82.857 59.433,85.731 57.349,92.638 58.805 M248.499 59.373 C 251.559 60.712,252.399 62.384,264.867 91.943 C 272.784 110.714,273.621 112.220,277.039 113.843 C 279.868 115.186,279.919 119.829,277.161 124.908 C 274.002 130.727,271.564 129.070,266.962 117.973 C 265.889 115.386,264.045 111.209,262.863 108.689 C 261.681 106.169,260.271 102.990,259.730 101.624 C 258.746 99.139,255.890 92.431,253.793 87.678 C 251.206 81.814,248.756 78.555,245.932 77.219 C 243.790 76.206,243.176 75.192,241.881 70.531 C 241.315 68.493,240.475 65.785,240.015 64.515 C 238.711 60.914,239.321 59.398,242.268 58.917 C 242.915 58.812,243.657 58.675,243.918 58.614 C 244.784 58.409,247.218 58.813,248.499 59.373 M127.419 59.201 C 131.277 60.845,131.623 70.374,127.771 68.876 C 126.970 68.564,121.460 62.564,120.953 61.453 C 120.081 59.538,124.555 57.981,127.419 59.201 M310.111 59.116 C 312.961 59.893,313.198 60.665,311.804 64.633 L 310.812 67.457 310.593 80.253 C 310.266 99.389,310.412 125.899,310.855 127.804 C 311.057 128.673,311.666 130.553,312.209 131.982 C 313.788 136.138,312.523 137.242,306.161 137.260 C 299.747 137.278,298.787 136.325,300.547 131.685 C 302.133 127.504,302.127 127.615,302.104 105.642 C 302.080 81.763,302.113 82.081,299.183 77.436 C 297.482 74.737,297.969 69.715,300.506 63.818 C 302.139 60.022,306.179 58.044,310.111 59.116 M164.172 62.057 C 164.266 62.302,163.957 63.688,163.487 65.137 C 160.091 75.593,164.575 86.826,173.194 89.451 C 175.903 90.276,176.240 90.686,176.612 93.624 C 177.093 97.419,177.031 97.328,185.464 106.642 C 187.985 109.427,191.326 113.172,192.889 114.965 C 196.421 119.019,197.587 119.884,200.871 120.886 C 203.726 121.758,203.849 121.884,204.872 125.014 C 205.532 127.036,207.285 129.063,210.303 131.295 C 216.641 135.982,211.412 138.423,202.868 134.766 C 199.423 133.291,197.182 132.931,193.136 133.202 C 191.199 133.332,189.864 133.307,189.943 133.142 C 190.019 132.987,190.355 132.291,190.690 131.596 C 192.461 127.920,191.514 125.693,185.150 118.568 C 170.206 101.839,168.287 100.158,164.137 100.158 C 161.117 100.158,161.204 100.262,161.381 96.863 C 161.552 93.604,161.073 92.062,158.916 88.927 C 152.354 79.390,153.355 66.012,160.909 62.272 C 162.449 61.510,163.925 61.413,164.172 62.057 M177.511 62.897 C 185.763 67.020,184.677 79.902,175.664 84.808 C 167.585 89.205,161.233 71.560,168.489 64.873 C 171.707 61.906,174.363 61.324,177.511 62.897 M187.631 62.693 C 190.819 64.341,193.394 69.626,192.860 73.423 C 192.132 78.602,187.341 84.992,184.186 84.992 C 182.827 84.992,182.826 84.652,184.178 81.300 C 186.413 75.756,186.778 71.528,185.474 66.276 C 184.510 62.390,185.111 61.390,187.631 62.693 M50.416 161.228 C 50.436 257.419,50.411 260.032,49.447 260.032 C 48.484 260.032,48.435 258.231,48.597 228.594 C 48.687 212.085,48.769 196.943,48.778 194.945 C 48.787 192.946,48.753 162.619,48.702 127.550 C 48.604 60.740,48.580 62.031,49.894 63.345 C 50.349 63.800,50.397 72.761,50.416 161.228 M122.044 91.864 C 124.140 94.185,123.232 101.119,120.801 101.360 C 119.730 101.466,113.373 97.501,112.983 96.485 C 112.268 94.622,120.667 90.339,122.044 91.864 M213.043 96.340 C 215.264 97.185,215.395 98.716,213.470 101.331 C 210.375 105.535,209.112 105.529,206.287 101.299 C 203.893 97.714,205.022 96.052,209.853 96.051 C 211.188 96.051,212.624 96.181,213.043 96.340 M160.190 101.111 C 160.190 101.287,159.353 103.100,158.331 105.139 C 149.918 121.922,158.755 133.648,180.493 134.549 C 186.042 134.779,186.536 135.022,183.724 136.138 C 176.772 138.899,165.331 139.081,158.774 136.535 C 143.848 130.740,141.609 112.777,154.653 103.469 C 157.522 101.421,160.190 100.285,160.190 101.111 M167.637 104.455 C 169.434 105.308,185.793 123.014,186.858 125.259 C 188.446 128.604,185.918 130.134,178.357 130.406 C 161.036 131.031,152.302 118.813,161.524 106.859 C 163.573 104.203,165.505 103.443,167.637 104.455 M133.473 125.821 C 134.214 126.879,134.144 132.119,133.366 133.832 C 131.957 136.934,127.595 138.070,123.944 136.287 C 122.003 135.339,122.171 135.021,127.329 129.880 C 132.317 124.908,132.670 124.674,133.473 125.821 M244.721 131.632 C 247.393 134.550,246.632 136.550,242.829 136.605 C 238.941 136.661,238.218 134.703,240.933 131.475 C 242.106 130.081,243.347 130.132,244.721 131.632 M96.998 181.989 C 82.951 183.484,75.513 190.922,75.513 203.476 C 75.513 216.029,80.755 221.589,101.738 231.291 C 113.947 236.937,117.652 242.714,114.488 251.169 C 109.330 264.948,90.896 263.229,83.784 248.305 C 82.155 244.885,80.813 243.602,78.866 243.602 C 75.338 243.602,74.040 247.674,74.860 256.165 C 75.732 265.178,76.956 266.602,84.186 267.012 C 86.454 267.141,89.092 267.416,90.047 267.625 C 92.668 268.196,109.685 268.046,112.082 267.430 C 127.500 263.470,134.902 246.237,126.943 232.831 C 123.181 226.493,118.674 223.320,104.107 216.753 C 93.186 211.830,91.304 210.281,90.351 205.435 C 88.282 194.918,94.876 188.165,104.752 190.686 C 109.526 191.905,111.592 193.556,115.324 199.132 C 117.943 203.045,119.172 204.107,121.082 204.107 C 123.973 204.107,124.920 201.746,124.868 194.672 C 124.797 184.992,123.450 183.075,116.815 183.203 C 114.523 183.248,112.299 183.066,110.021 182.648 C 106.060 181.920,100.356 181.632,96.998 181.989 M307.899 182.633 C 286.517 187.128,274.765 209.138,279.137 236.503 C 282.093 255.005,295.680 268.219,311.771 268.242 C 316.428 268.249,325.694 267.621,328.278 267.124 C 338.568 265.144,350.648 250.843,344.279 248.182 C 342.149 247.292,340.586 248.269,336.849 252.828 C 328.514 262.993,313.663 263.396,303.917 253.723 C 286.350 236.286,292.318 196.302,313.281 190.985 C 323.716 188.337,331.271 191.406,337.498 200.820 C 340.570 205.463,342.111 206.639,344.528 206.186 C 345.401 206.022,347.551 204.230,347.551 203.666 C 347.551 203.608,347.692 202.818,347.865 201.910 C 348.073 200.811,348.070 198.705,347.856 195.626 C 347.205 186.256,345.813 184.519,338.952 184.518 C 336.198 184.517,334.632 184.333,332.070 183.706 C 324.200 181.783,314.081 181.333,307.899 182.633 M202.406 184.025 C 199.223 185.186,198.010 187.396,193.974 199.387 C 192.369 204.155,190.494 209.336,189.807 210.900 C 189.120 212.464,187.998 215.358,187.315 217.331 C 186.632 219.304,185.587 221.883,184.994 223.062 C 184.400 224.241,182.552 229.096,180.888 233.851 C 175.037 250.564,173.419 254.235,170.359 257.730 C 167.360 261.155,167.141 261.532,167.141 263.251 C 167.141 266.489,169.876 267.780,176.657 267.743 C 184.231 267.701,186.207 265.517,184.042 259.581 C 182.846 256.300,183.019 254.653,185.265 247.942 C 188.973 236.863,189.050 236.811,202.054 236.822 C 214.119 236.832,214.110 236.825,218.540 249.881 C 220.361 255.246,220.363 256.938,218.552 259.918 C 215.093 265.612,217.861 267.619,229.308 267.717 C 241.493 267.820,244.001 265.137,238.027 258.390 C 235.589 255.637,234.492 253.446,231.968 246.288 C 229.487 239.254,225.860 229.442,224.786 226.856 C 223.839 224.579,220.908 216.510,218.818 210.427 C 210.714 186.841,207.751 182.075,202.406 184.025 M119.442 187.209 C 122.485 188.783,122.321 197.792,119.263 197.024 C 117.796 196.656,112.480 190.321,112.480 188.941 C 112.480 187.254,117.239 186.070,119.442 187.209 M206.381 188.354 C 207.961 189.479,211.957 199.103,217.365 214.807 C 218.763 218.868,220.954 224.839,222.232 228.077 C 223.511 231.316,225.664 237.093,227.017 240.916 C 230.184 249.863,231.933 254.329,233.672 257.900 C 236.145 262.983,235.220 264.451,229.542 264.451 C 224.115 264.451,223.271 263.625,223.217 258.258 C 223.140 250.692,217.983 238.212,213.309 234.281 C 210.634 232.031,210.520 231.750,211.232 229.155 C 212.333 225.142,212.081 223.603,208.939 215.166 C 205.956 207.158,204.821 205.095,201.727 202.054 C 198.799 199.176,198.453 198.250,199.057 194.916 C 200.182 188.716,203.152 186.054,206.381 188.354 M342.119 188.633 C 343.721 189.610,344.377 191.391,344.384 194.787 C 344.395 200.335,342.458 201.171,339.012 197.106 C 333.776 190.929,333.373 189.330,336.790 188.293 C 338.416 187.800,341.026 187.966,342.119 188.633 M89.983 189.119 C 90.034 189.478,89.641 190.856,89.111 192.181 C 86.359 199.053,86.627 206.860,89.762 211.182 C 91.565 213.668,97.788 217.299,107.425 221.486 C 117.215 225.741,120.909 228.493,124.285 234.051 C 130.077 243.586,126.940 256.602,117.757 261.136 C 112.342 263.809,111.213 262.982,114.093 258.452 C 119.764 249.531,119.784 241.892,114.150 235.969 C 111.098 232.760,108.850 231.446,97.156 226.037 C 88.909 222.222,84.065 218.612,81.158 214.113 C 76.975 207.641,77.534 196.920,82.323 191.800 C 85.002 188.936,89.720 187.284,89.983 189.119 M305.141 188.949 C 305.191 189.213,304.449 190.350,303.492 191.476 C 297.192 198.888,295.810 201.321,293.674 208.764 C 289.489 223.345,290.161 235.061,295.901 247.612 C 297.509 251.128,299.045 253.217,303.239 257.594 C 308.251 262.825,308.354 264.088,303.696 263.203 C 292.783 261.131,284.063 249.993,281.794 235.229 C 278.856 216.111,284.425 199.265,296.367 191.152 C 300.153 188.579,304.847 187.400,305.141 188.949 M202.988 209.594 C 204.048 210.655,204.764 212.180,206.563 217.220 C 209.771 226.200,209.090 227.623,201.580 227.638 C 194.280 227.653,193.704 226.509,196.635 217.812 C 199.532 209.213,200.873 207.479,202.988 209.594 M189.477 227.962 C 190.416 228.619,191.469 230.409,191.469 231.347 C 191.469 233.411,186.511 235.290,185.926 233.448 C 185.488 232.066,186.745 228.510,187.912 227.831 C 188.643 227.405,188.688 227.409,189.477 227.962 M83.432 254.265 C 90.075 261.261,90.485 262.769,85.935 263.472 C 80.406 264.327,78.214 262.273,78.205 256.226 C 78.195 250.211,79.218 249.828,83.432 254.265 M147.096 253.868 C 142.227 255.603,140.553 261.544,143.870 265.322 C 146.919 268.795,153.136 268.314,155.537 264.420 C 159.062 258.701,153.400 251.622,147.096 253.868 M254.424 254.377 C 250.835 256.154,249.553 260.186,251.422 263.819 C 254.795 270.375,264.733 268.076,264.764 260.732 C 264.786 255.381,259.259 251.984,254.424 254.377 M178.819 258.269 C 180.350 261.432,179.458 263.509,176.460 263.757 C 172.320 264.101,171.786 261.347,175.348 258.015 C 177.181 256.301,177.891 256.353,178.819 258.269 M151.796 257.844 C 155.388 260.998,150.909 266.348,147.005 263.568 C 144.029 261.449,145.591 256.872,149.289 256.872 C 150.402 256.872,150.916 257.072,151.796 257.844 M260.356 257.986 C 263.140 260.654,260.479 265.138,256.727 264.102 C 254.552 263.502,253.315 260.690,254.365 258.730 C 255.424 256.751,258.649 256.350,260.356 257.986 " stroke="none" fill="#b5c0cc" fill-rule="evenodd"></path><path id="path3" d="M306.951 59.366 C 301.331 60.328,297.584 69.545,300.761 74.592 C 303.410 78.799,303.318 77.730,303.318 104.084 C 303.318 128.763,303.326 128.623,301.582 132.064 C 300.069 135.051,300.664 135.869,304.753 136.425 C 310.856 137.254,313.413 135.785,311.711 132.426 C 309.424 127.914,309.560 130.089,309.584 98.420 C 309.608 66.881,309.496 68.683,311.749 63.694 L 312.884 61.180 311.887 60.290 C 311.339 59.800,310.573 59.398,310.185 59.395 C 309.796 59.393,309.194 59.337,308.847 59.270 C 308.499 59.204,307.646 59.247,306.951 59.366 M85.624 59.935 C 84.154 60.694,84.096 61.504,85.253 65.151 L 86.185 68.088 86.142 98.262 L 86.098 128.436 85.229 130.891 C 83.527 135.701,84.591 136.630,91.785 136.618 C 97.522 136.608,98.663 135.436,96.365 131.910 C 95.631 130.783,94.657 128.972,94.201 127.885 L 93.372 125.908 93.264 115.273 C 93.140 103.057,93.274 102.052,95.455 98.841 C 97.077 96.453,97.077 96.050,95.456 93.543 C 93.595 90.662,93.481 89.961,93.225 79.779 C 92.975 69.821,93.056 68.493,94.165 64.441 C 94.977 61.475,94.917 60.970,93.647 60.138 C 92.352 59.290,87.129 59.157,85.624 59.935 M122.907 59.789 C 120.732 60.932,125.599 68.246,128.535 68.246 C 129.702 68.246,130.295 65.314,129.691 62.528 C 129.184 60.193,125.198 58.584,122.907 59.789 M241.390 59.953 C 239.175 61.060,241.032 66.101,245.765 71.830 C 248.882 75.602,252.901 82.704,255.449 88.942 C 256.088 90.506,257.440 93.776,258.455 96.209 C 259.470 98.641,260.972 102.338,261.793 104.423 C 262.614 106.509,264.444 110.561,265.859 113.428 C 267.274 116.295,268.979 120.036,269.648 121.741 C 272.284 128.465,274.393 129.392,276.674 124.829 C 278.818 120.540,278.582 116.859,276.060 115.263 C 273.461 113.619,272.193 111.750,270.254 106.702 C 268.945 103.294,268.667 102.651,266.625 98.309 C 265.779 96.510,265.087 94.986,265.087 94.922 C 265.087 94.858,264.747 94.055,264.332 93.137 C 263.916 92.220,263.151 90.403,262.631 89.100 C 262.110 87.796,261.313 85.921,260.858 84.933 C 260.404 83.945,260.032 83.055,260.032 82.955 C 260.032 82.855,259.758 82.171,259.424 81.434 C 259.090 80.698,257.656 77.393,256.238 74.092 C 251.518 63.102,250.187 60.863,247.776 59.856 C 246.239 59.214,242.764 59.267,241.390 59.953 M91.743 62.218 C 92.414 62.890,92.464 64.061,91.965 67.457 C 90.974 74.195,91.711 89.946,93.175 93.312 C 94.083 95.401,94.009 96.726,92.820 99.684 L 91.803 102.212 91.688 112.145 C 91.556 123.473,91.768 125.680,93.399 129.903 C 94.893 133.771,94.332 134.986,91.050 134.986 C 87.410 134.986,86.956 134.071,87.495 127.833 C 87.899 123.158,87.776 68.931,87.352 64.838 C 87.021 61.642,89.618 60.093,91.743 62.218 M248.051 62.014 C 250.075 63.379,253.949 71.500,260.534 88.191 C 262.194 92.397,264.043 96.814,264.643 98.007 C 265.244 99.199,266.639 102.346,267.744 104.998 C 270.539 111.711,271.841 114.182,273.389 115.710 C 276.072 118.359,276.625 120.685,275.107 122.937 C 273.617 125.148,272.184 124.038,270.306 119.220 C 269.640 117.512,267.774 113.341,266.158 109.953 C 264.542 106.564,262.731 102.441,262.133 100.790 C 257.891 89.077,251.712 76.830,248.048 72.870 C 244.762 69.319,242.970 66.020,242.970 63.523 C 242.970 61.485,245.951 60.600,248.051 62.014 M308.172 62.266 C 309.085 62.984,309.215 63.969,308.692 66.193 C 307.661 70.580,307.421 77.807,307.411 104.739 L 307.403 125.592 308.204 128.538 C 309.427 133.035,309.224 134.134,307.108 134.472 C 304.117 134.949,303.258 133.506,304.225 129.625 C 305.226 125.606,305.471 119.581,305.344 102.054 C 305.187 80.206,305.117 79.378,303.011 74.429 C 302.007 72.070,301.738 71.045,301.738 69.577 C 301.738 64.211,305.382 60.071,308.172 62.266 M160.979 62.523 C 154.135 66.805,153.717 80.703,160.188 88.784 C 162.257 91.366,162.674 92.166,163.486 95.103 L 164.142 97.472 166.961 98.868 C 170.190 100.466,170.513 100.766,178.200 109.289 C 190.945 123.421,192.235 125.164,192.610 128.752 C 192.864 131.186,193.308 131.668,195.530 131.913 C 198.856 132.281,200.614 132.741,203.539 134.010 C 210.185 136.892,214.526 135.537,209.479 132.155 C 205.384 129.411,205.350 129.368,203.034 124.119 C 202.596 123.125,202.100 122.753,199.532 121.496 C 196.835 120.175,196.283 119.745,193.927 117.125 C 192.490 115.526,189.025 111.872,186.227 109.005 C 177.646 100.213,176.281 98.433,175.190 94.619 C 174.492 92.181,174.143 91.820,171.051 90.345 C 163.362 86.675,159.404 75.352,162.588 66.132 C 164.040 61.925,163.581 60.895,160.979 62.523 M185.714 62.733 C 185.532 62.914,185.610 63.289,186.694 67.457 C 187.937 72.234,187.541 76.644,185.481 80.976 C 184.315 83.427,184.356 84.249,185.613 83.676 C 186.054 83.475,186.414 83.192,186.414 83.046 C 186.414 82.900,186.546 82.780,186.707 82.780 C 187.361 82.780,190.277 79.335,191.220 77.449 C 192.498 74.892,192.821 70.888,191.958 68.291 C 190.971 65.319,186.821 61.626,185.714 62.733 M48.946 63.387 C 48.195 64.300,48.631 80.102,49.400 79.848 C 49.859 79.696,50.621 70.069,50.462 66.418 C 50.335 63.477,49.781 62.371,48.946 63.387 M159.721 76.015 C 161.287 83.026,165.104 88.748,169.883 91.250 C 170.956 91.812,172.175 92.677,172.591 93.171 C 173.339 94.060,173.501 94.404,174.603 97.445 C 175.390 99.618,176.680 101.226,182.523 107.315 C 185.333 110.243,189.136 114.442,190.974 116.646 C 194.543 120.927,195.244 121.546,198.065 122.912 C 201.206 124.434,203.476 127.478,203.476 130.171 C 203.476 132.085,195.807 130.581,194.944 128.498 C 194.786 128.116,194.215 126.711,193.674 125.376 C 192.753 123.101,192.231 122.446,185.366 114.973 C 181.337 110.586,177.309 106.119,176.413 105.046 C 173.564 101.628,171.759 100.040,168.917 98.448 C 165.739 96.668,164.967 95.783,163.992 92.803 C 163.607 91.624,162.472 89.413,161.471 87.888 C 158.432 83.260,157.020 78.549,157.526 74.724 C 158.026 70.941,158.672 71.321,159.721 76.015 M117.827 92.978 C 113.502 95.756,113.258 96.265,115.405 98.025 C 120.862 102.496,122.752 102.000,122.640 96.126 C 122.550 91.395,121.432 90.663,117.827 92.978 M207.297 96.779 C 205.122 97.542,205.196 99.007,207.533 101.432 C 208.492 102.427,209.314 103.002,209.778 103.002 C 211.994 103.002,215.262 98.949,214.286 97.413 C 213.634 96.388,209.485 96.012,207.297 96.779 M154.333 104.513 C 145.644 110.817,144.320 123.464,151.591 130.704 C 156.930 136.019,161.147 137.344,171.758 137.041 C 179.416 136.822,181.996 135.882,176.167 135.433 C 167.011 134.730,159.072 129.854,155.616 122.811 C 153.122 117.730,153.355 114.394,156.724 106.938 C 158.158 103.766,156.992 102.583,154.333 104.513 M49.252 115.542 C 49.219 122.128,48.704 160.328,48.603 163.665 C 48.357 171.853,49.068 201.274,49.502 200.840 C 50.208 200.134,50.258 108.934,49.553 108.499 C 49.408 108.409,49.273 111.579,49.252 115.542 M152.302 113.823 C 152.330 120.604,154.165 124.894,159.415 130.460 C 163.519 134.810,159.626 135.176,153.921 130.976 C 149.383 127.635,147.371 120.670,149.210 114.666 C 150.457 110.593,152.286 110.095,152.302 113.823 M129.921 127.251 C 122.616 134.987,122.304 136.268,127.618 136.708 C 131.573 137.036,133.715 134.573,133.918 129.465 C 134.112 124.578,133.018 123.971,129.921 127.251 M241.827 131.432 C 241.176 131.695,239.727 133.707,239.609 134.512 C 239.397 135.955,242.609 136.916,244.709 136.039 C 246.078 135.467,246.255 134.559,245.283 133.097 C 243.990 131.150,243.321 130.828,241.827 131.432 M114.819 187.332 C 112.752 188.270,112.705 189.063,114.546 191.940 C 118.704 198.440,121.487 198.632,121.482 192.417 C 121.478 187.450,118.896 185.480,114.819 187.332 M202.004 189.336 C 200.831 190.588,200.046 192.534,199.798 194.807 C 199.521 197.349,199.800 197.947,202.499 200.586 C 207.095 205.081,213.692 222.510,213.118 228.641 C 212.868 231.305,213.145 231.938,215.650 234.439 C 217.446 236.232,218.172 237.720,220.507 244.392 C 221.540 247.346,222.840 251.041,223.395 252.602 C 224.364 255.327,224.396 255.571,224.189 258.665 C 223.894 263.061,224.706 263.824,229.668 263.822 C 234.763 263.819,235.213 262.466,232.104 256.489 C 230.827 254.033,229.494 250.789,228.476 247.660 C 227.591 244.939,226.088 240.957,225.135 238.811 C 223.251 234.567,220.469 226.831,218.941 221.587 C 218.411 219.767,217.369 216.831,216.626 215.063 C 215.883 213.295,214.730 210.427,214.064 208.689 C 213.398 206.951,211.968 203.325,210.888 200.632 C 209.807 197.938,208.599 194.739,208.204 193.523 C 206.568 188.495,204.257 186.934,202.004 189.336 M300.943 188.913 C 277.155 197.497,275.594 250.460,298.816 261.035 C 305.001 263.851,307.146 262.756,303.366 258.712 C 292.194 246.762,290.107 241.061,290.511 223.592 C 290.751 213.184,290.739 213.260,293.115 207.450 C 295.782 200.929,297.317 198.481,302.338 192.743 C 306.050 188.503,305.588 187.236,300.943 188.913 M86.098 189.218 C 79.200 192.375,76.617 203.907,80.968 212.129 C 83.869 217.611,94.152 224.731,104.506 228.428 C 111.892 231.065,117.658 236.854,119.298 243.279 C 120.239 246.966,119.579 249.677,116.264 255.745 C 113.243 261.275,113.610 262.383,117.833 260.488 C 125.823 256.903,128.940 243.323,123.750 234.707 C 120.476 229.272,115.304 225.810,100.909 219.419 C 89.959 214.557,87.971 212.463,87.148 204.921 C 86.727 201.062,87.296 196.823,88.839 192.329 C 90.148 188.517,89.424 187.696,86.098 189.218 M336.934 189.077 C 335.084 189.883,335.346 191.532,337.885 195.063 C 341.810 200.521,343.728 200.804,344.005 195.968 C 344.342 190.092,341.335 187.161,336.934 189.077 M205.756 192.053 C 206.173 192.548,207.202 194.859,208.044 197.188 C 208.885 199.516,210.065 202.624,210.667 204.094 C 211.803 206.872,214.012 213.224,216.112 219.747 C 216.783 221.833,217.700 224.290,218.151 225.209 C 220.010 229.001,221.927 234.103,226.365 247.077 C 227.287 249.771,228.770 253.455,229.660 255.264 C 231.902 259.818,231.766 261.611,229.179 261.611 C 227.216 261.611,226.345 260.363,226.080 257.172 C 225.603 251.417,220.694 238.639,217.234 234.142 C 215.100 231.369,214.750 230.339,214.923 227.346 C 215.093 224.419,214.901 223.399,213.377 219.115 C 210.086 209.861,206.984 202.910,205.032 200.415 C 202.175 196.761,202.054 196.526,202.054 194.642 C 202.054 191.378,204.027 189.998,205.756 192.053 M85.160 200.005 C 85.182 212.883,87.606 215.614,106.319 223.842 C 116.117 228.150,118.081 229.432,120.869 233.339 C 125.444 239.750,125.850 249.325,121.729 253.636 L 120.600 254.818 120.364 253.970 C 120.232 253.494,120.322 252.107,120.570 250.810 C 121.814 244.285,120.343 238.969,116.026 234.392 C 112.265 230.405,109.579 228.806,98.262 223.815 C 83.385 217.254,77.038 206.647,82.045 196.711 C 84.307 192.222,85.148 193.112,85.160 200.005 M294.471 197.665 C 294.471 197.771,293.985 199.442,293.391 201.378 C 289.269 214.812,288.195 222.351,289.074 231.674 C 289.713 238.448,292.784 248.174,296.012 253.647 C 299.360 259.323,293.166 255.365,289.266 249.336 C 280.004 235.018,281.980 206.505,292.800 198.341 C 293.921 197.495,294.471 197.273,294.471 197.665 M48.798 229.546 C 48.228 233.346,49.048 253.469,49.705 251.817 C 50.006 251.061,50.491 238.082,50.354 234.439 C 50.156 229.144,49.274 226.371,48.798 229.546 M187.686 229.288 C 186.609 230.656,186.886 232.670,188.168 232.796 C 190.481 233.022,191.439 230.892,189.811 229.147 C 188.946 228.221,188.502 228.250,187.686 229.288 M79.075 252.672 C 77.556 254.990,78.591 261.308,80.701 262.595 C 82.982 263.986,87.883 263.054,88.096 261.189 C 88.305 259.370,81.620 251.817,79.802 251.817 C 79.710 251.817,79.383 252.201,79.075 252.672 M49.046 258.183 C 49.096 259.950,49.921 260.005,49.921 258.241 C 49.921 257.642,49.791 257.231,49.632 257.329 C 49.473 257.428,49.267 257.329,49.173 257.111 C 49.080 256.893,49.022 257.375,49.046 258.183 M147.709 257.173 C 145.823 257.954,144.874 260.427,145.786 262.189 C 147.437 265.383,152.923 264.316,152.923 260.801 C 152.923 257.960,150.270 256.114,147.709 257.173 M175.294 258.119 C 172.439 260.892,172.630 263.507,175.687 263.507 C 178.892 263.507,179.960 261.284,178.309 258.053 C 177.741 256.942,176.477 256.970,175.294 258.119 M256.687 257.637 C 253.221 259.146,254.144 263.836,257.904 263.816 C 261.626 263.796,262.627 259.056,259.211 257.629 C 257.946 257.100,257.920 257.100,256.687 257.637 M83.232 258.316 C 83.846 258.930,83.877 259.907,83.291 260.132 C 82.607 260.394,81.517 259.448,81.517 258.592 C 81.517 257.681,82.447 257.532,83.232 258.316 " stroke="none" fill="#a4a4ac" fill-rule="evenodd"></path><path id="path4" d="M86.427 58.915 C 83.630 59.666,83.254 60.768,84.439 64.751 L 85.150 67.141 85.150 97.946 L 85.150 128.752 84.364 131.685 C 83.644 134.374,83.618 134.689,84.056 135.476 C 85.726 138.480,99.526 138.085,99.526 135.033 C 99.526 134.776,98.621 133.306,97.515 131.765 C 94.394 127.420,94.313 126.961,94.313 113.744 C 94.313 101.319,94.280 101.501,97.112 98.313 C 98.923 96.273,98.933 95.780,97.197 93.731 C 94.345 90.365,94.019 88.426,94.242 76.153 C 94.398 67.560,94.471 66.993,95.924 63.181 C 97.315 59.532,92.383 57.316,86.427 58.915 M243.918 58.614 C 243.657 58.675,242.915 58.812,242.268 58.917 C 239.321 59.398,238.711 60.914,240.015 64.515 C 240.475 65.785,241.315 68.493,241.881 70.531 C 243.176 75.192,243.790 76.206,245.932 77.219 C 248.756 78.555,251.206 81.814,253.793 87.678 C 255.890 92.431,258.746 99.139,259.730 101.624 C 260.271 102.990,261.681 106.169,262.863 108.689 C 264.045 111.209,265.889 115.386,266.962 117.973 C 271.564 129.070,274.002 130.727,277.161 124.908 C 279.919 119.829,279.868 115.186,277.039 113.843 C 273.621 112.220,272.784 110.714,264.867 91.943 C 252.399 62.384,251.559 60.712,248.499 59.373 C 247.218 58.813,244.784 58.409,243.918 58.614 M122.854 59.142 C 119.868 59.936,120.070 60.873,124.209 65.428 C 128.007 69.608,129.129 69.960,130.077 67.265 C 131.984 61.843,128.294 57.693,122.854 59.142 M305.427 59.220 C 302.431 60.025,300.719 62.409,299.041 68.115 C 297.759 72.474,297.801 75.243,299.183 77.436 C 302.113 82.081,302.080 81.763,302.104 105.642 C 302.127 127.615,302.133 127.504,300.547 131.685 C 298.787 136.325,299.747 137.278,306.161 137.260 C 312.523 137.242,313.788 136.138,312.209 131.982 C 310.497 127.475,310.492 127.407,310.431 109.637 C 310.329 79.669,310.650 67.910,311.645 65.113 C 312.659 62.261,312.553 61.886,311.435 64.376 C 309.544 68.591,309.608 67.405,309.584 98.420 C 309.560 130.089,309.424 127.914,311.711 132.426 C 313.413 135.785,310.856 137.254,304.753 136.425 C 300.664 135.869,300.069 135.051,301.582 132.064 C 303.326 128.623,303.318 128.763,303.318 104.084 C 303.318 77.730,303.410 78.799,300.761 74.592 C 297.110 68.793,301.858 59.385,308.471 59.315 C 309.967 59.299,310.473 59.212,309.953 59.061 C 308.747 58.710,307.112 58.767,305.427 59.220 M93.647 60.138 C 94.917 60.970,94.977 61.475,94.165 64.441 C 93.056 68.493,92.975 69.821,93.225 79.779 C 93.481 89.961,93.595 90.662,95.456 93.543 C 97.077 96.050,97.077 96.453,95.455 98.841 C 93.274 102.052,93.140 103.057,93.264 115.273 L 93.372 125.908 94.201 127.885 C 94.657 128.972,95.631 130.783,96.365 131.910 C 98.663 135.436,97.522 136.608,91.785 136.618 C 84.591 136.630,83.527 135.701,85.229 130.891 L 86.098 128.436 86.142 98.262 L 86.185 68.088 85.253 65.151 C 84.096 61.504,84.154 60.694,85.624 59.935 C 87.129 59.157,92.352 59.290,93.647 60.138 M128.425 60.653 C 129.576 61.769,129.832 62.471,129.929 64.784 C 130.044 67.526,128.983 68.815,127.336 67.933 C 125.851 67.139,121.926 62.137,122.023 61.161 C 122.231 59.049,126.426 58.715,128.425 60.653 M247.776 59.856 C 250.187 60.863,251.518 63.102,256.238 74.092 C 257.656 77.393,259.090 80.698,259.424 81.434 C 259.758 82.171,260.032 82.855,260.032 82.955 C 260.032 83.055,260.404 83.945,260.858 84.933 C 261.313 85.921,262.110 87.796,262.631 89.100 C 263.151 90.403,263.916 92.220,264.332 93.137 C 264.747 94.055,265.087 94.858,265.087 94.922 C 265.087 94.986,265.779 96.510,266.625 98.309 C 268.667 102.651,268.945 103.294,270.254 106.702 C 272.193 111.750,273.461 113.619,276.060 115.263 C 278.582 116.859,278.818 120.540,276.674 124.829 C 274.393 129.392,272.284 128.465,269.648 121.741 C 268.979 120.036,267.274 116.295,265.859 113.428 C 264.444 110.561,262.614 106.509,261.793 104.423 C 260.972 102.338,259.470 98.641,258.455 96.209 C 257.440 93.776,256.088 90.506,255.449 88.942 C 252.901 82.704,248.882 75.602,245.765 71.830 C 243.166 68.683,240.082 63.026,240.195 61.611 C 240.355 59.621,244.768 58.599,247.776 59.856 M310.927 59.479 C 310.999 59.522,311.485 59.913,312.006 60.348 L 312.954 61.137 312.188 60.269 C 311.767 59.791,311.281 59.400,311.109 59.400 C 310.936 59.400,310.854 59.435,310.927 59.479 M162.658 61.837 C 163.807 62.056,163.798 62.627,162.588 66.132 C 159.404 75.352,163.362 86.675,171.051 90.345 C 174.143 91.820,174.492 92.181,175.190 94.619 C 176.281 98.433,177.646 100.213,186.227 109.005 C 189.025 111.872,192.490 115.526,193.927 117.125 C 196.283 119.745,196.835 120.175,199.532 121.496 C 202.100 122.753,202.596 123.125,203.034 124.119 C 205.350 129.368,205.384 129.411,209.479 132.155 C 214.526 135.537,210.185 136.892,203.539 134.010 C 200.614 132.741,198.856 132.281,195.530 131.913 C 193.308 131.668,192.864 131.186,192.610 128.752 C 192.235 125.164,190.945 123.421,178.200 109.289 C 170.513 100.766,170.190 100.466,166.961 98.868 L 164.142 97.472 163.486 95.103 C 162.674 92.166,162.257 91.366,160.188 88.784 C 154.331 81.470,153.993 68.901,159.514 63.736 C 160.392 62.915,161.282 62.243,161.493 62.243 C 161.703 62.243,161.780 62.149,161.664 62.033 C 161.548 61.917,160.675 62.358,159.724 63.014 C 153.201 67.506,152.810 80.052,158.916 88.927 C 161.073 92.062,161.552 93.604,161.381 96.863 C 161.204 100.262,161.117 100.158,164.137 100.158 C 168.287 100.158,170.206 101.839,185.150 118.568 C 191.514 125.693,192.461 127.920,190.690 131.596 C 190.355 132.291,190.019 132.987,189.943 133.142 C 189.864 133.307,191.199 133.332,193.136 133.202 C 197.182 132.931,199.423 133.291,202.868 134.766 C 211.412 138.423,216.641 135.982,210.303 131.295 C 207.285 129.063,205.532 127.036,204.872 125.014 C 203.849 121.884,203.726 121.758,200.871 120.886 C 197.587 119.884,196.421 119.019,192.889 114.965 C 191.326 113.172,187.985 109.427,185.464 106.642 C 177.031 97.328,177.093 97.419,176.612 93.624 C 176.240 90.686,175.903 90.276,173.194 89.451 C 164.575 86.826,160.091 75.593,163.487 65.137 C 164.479 62.081,164.406 61.595,162.964 61.654 C 162.189 61.687,162.111 61.733,162.658 61.837 M184.991 62.879 C 184.880 63.229,185.097 64.757,185.474 66.276 C 186.778 71.528,186.413 75.756,184.178 81.300 C 182.826 84.652,182.827 84.992,184.186 84.992 C 188.295 84.992,193.779 75.813,192.776 70.616 C 192.570 69.551,192.508 69.829,192.383 72.386 C 192.184 76.444,188.724 82.780,186.707 82.780 C 186.546 82.780,186.414 82.900,186.414 83.046 C 186.414 83.192,186.054 83.475,185.613 83.676 C 184.356 84.249,184.315 83.427,185.481 80.976 C 187.541 76.644,187.937 72.234,186.694 67.457 C 185.558 63.088,185.520 62.879,185.833 62.686 C 186.448 62.305,187.779 62.944,189.364 64.378 L 190.995 65.856 189.731 64.497 C 187.666 62.277,185.425 61.512,184.991 62.879 M50.048 75.252 C 49.742 80.061,49.038 81.850,48.909 78.146 C 48.649 70.701,48.526 93.403,48.660 124.013 C 48.748 144.171,48.855 155.403,48.897 148.973 C 49.041 127.038,49.391 108.399,49.656 108.563 C 49.802 108.652,49.932 120.341,49.944 134.537 C 49.957 148.733,50.082 160.987,50.221 161.769 C 50.360 162.551,50.492 142.397,50.513 116.983 C 50.535 91.568,50.503 70.774,50.443 70.774 C 50.382 70.774,50.204 72.789,50.048 75.252 M116.740 93.024 C 111.828 95.971,111.823 96.100,116.508 99.233 C 121.252 102.406,122.715 101.986,123.137 97.331 C 123.670 91.455,121.636 90.085,116.740 93.024 M122.136 92.730 C 122.639 93.933,122.828 97.948,122.442 99.210 C 121.618 101.903,119.755 101.589,115.405 98.025 C 113.258 96.265,113.502 95.756,117.827 92.978 C 120.472 91.279,121.505 91.220,122.136 92.730 M206.319 96.589 C 203.931 97.815,206.283 103.616,209.492 104.417 C 211.621 104.948,215.733 99.150,214.530 97.314 C 214.308 96.976,214.274 97.128,214.412 97.846 C 214.757 99.646,211.742 103.002,209.778 103.002 C 208.126 103.002,205.144 98.887,205.908 97.660 C 206.611 96.530,211.135 95.934,213.171 96.702 C 213.904 96.979,213.988 96.965,213.650 96.623 C 212.957 95.922,207.665 95.897,206.319 96.589 M158.011 101.434 C 144.085 107.752,141.984 126.011,154.245 134.162 C 161.408 138.924,174.499 139.802,183.724 136.138 C 186.536 135.022,186.042 134.779,180.493 134.549 C 167.874 134.026,159.968 130.053,156.356 122.421 C 153.964 117.366,154.484 112.813,158.331 105.139 C 160.742 100.330,160.731 100.200,158.011 101.434 M157.403 104.727 C 157.347 105.241,157.042 106.236,156.724 106.938 C 153.355 114.394,153.122 117.730,155.616 122.811 C 159.072 129.854,167.011 134.730,176.167 135.433 C 179.012 135.652,179.588 135.918,178.489 136.507 C 177.477 137.048,166.209 137.300,163.499 136.841 C 150.050 134.565,143.149 122.340,148.860 110.910 C 151.312 106.004,157.771 101.328,157.403 104.727 M241.162 131.201 C 238.754 133.820,238.781 136.611,241.213 136.450 C 241.830 136.409,241.829 136.400,241.176 136.273 C 238.961 135.842,239.768 131.913,242.197 131.304 C 244.858 130.636,247.189 134.976,244.741 136.041 C 244.201 136.276,243.990 136.474,244.270 136.481 C 246.251 136.529,246.827 134.650,245.463 132.590 C 243.972 130.339,242.417 129.836,241.162 131.201 M124.141 132.987 C 122.262 134.798,122.223 135.446,123.944 136.287 C 128.256 138.393,134.061 135.943,133.936 132.070 C 133.928 131.809,133.723 132.135,133.481 132.794 C 132.407 135.719,130.304 137.062,127.345 136.712 C 123.788 136.290,123.038 135.033,124.985 132.758 C 126.505 130.982,126.109 131.090,124.141 132.987 M242.180 136.493 C 242.073 136.667,242.286 136.809,242.654 136.809 C 243.022 136.809,243.235 136.667,243.128 136.493 C 243.021 136.319,242.807 136.177,242.654 136.177 C 242.501 136.177,242.287 136.319,242.180 136.493 M50.122 181.754 C 50.005 191.181,49.825 199.356,49.722 199.921 C 49.457 201.365,49.028 201.198,48.908 199.605 C 48.853 198.867,48.700 204.518,48.568 212.164 C 48.431 220.134,48.449 226.808,48.612 227.804 C 48.767 228.760,48.912 229.222,48.934 228.831 C 48.995 227.726,49.553 227.994,49.787 229.241 C 49.902 229.857,50.083 230.275,50.188 230.170 C 50.370 229.988,50.603 164.613,50.422 164.613 C 50.373 164.613,50.239 172.326,50.122 181.754 M48.766 173.302 C 48.767 174.692,48.822 175.221,48.889 174.478 C 48.956 173.735,48.955 172.598,48.887 171.951 C 48.819 171.304,48.764 171.912,48.766 173.302 M48.779 187.678 C 48.779 189.850,48.829 190.739,48.891 189.652 C 48.953 188.566,48.953 186.789,48.891 185.703 C 48.829 184.617,48.779 185.506,48.779 187.678 M113.775 187.445 C 112.063 188.326,112.198 189.565,114.265 191.955 L 115.074 192.891 114.506 191.943 C 112.858 189.195,112.822 188.344,114.319 187.531 C 115.346 186.973,114.847 186.894,113.775 187.445 M202.963 187.808 C 201.091 188.637,199.755 191.067,199.057 194.916 C 198.453 198.250,198.799 199.176,201.727 202.054 C 204.821 205.095,205.956 207.158,208.939 215.166 C 212.081 223.603,212.333 225.142,211.232 229.155 C 210.520 231.750,210.634 232.031,213.309 234.281 C 217.983 238.212,223.140 250.692,223.217 258.258 C 223.271 263.625,224.115 264.451,229.542 264.451 C 235.220 264.451,236.145 262.983,233.672 257.900 C 231.933 254.329,230.184 249.863,227.017 240.916 C 225.664 237.093,223.511 231.316,222.232 228.077 C 220.954 224.839,218.763 218.868,217.365 214.807 C 209.108 190.831,206.630 186.186,202.963 187.808 M336.790 188.293 C 334.503 188.987,334.089 189.875,335.114 191.880 C 336.063 193.735,340.305 198.871,341.158 199.199 C 341.436 199.305,340.955 198.640,340.090 197.721 C 335.705 193.064,334.627 189.860,337.149 188.980 C 341.662 187.407,344.339 190.143,344.004 195.986 C 343.926 197.341,343.980 198.265,344.122 198.040 C 344.657 197.197,344.412 192.019,343.771 190.607 C 342.733 188.320,339.850 187.365,336.790 188.293 M88.468 188.576 C 89.644 188.797,89.818 189.324,89.321 191.153 C 89.194 191.622,89.305 191.509,89.594 190.877 C 90.383 189.152,90.117 188.476,88.626 188.418 L 87.362 188.369 88.468 188.576 M205.397 188.639 C 206.301 189.123,207.387 191.013,208.204 193.523 C 208.599 194.739,209.807 197.938,210.888 200.632 C 211.968 203.325,213.398 206.951,214.064 208.689 C 214.730 210.427,215.883 213.295,216.626 215.063 C 217.369 216.831,218.411 219.767,218.941 221.587 C 220.469 226.831,223.251 234.567,225.135 238.811 C 226.088 240.957,227.591 244.939,228.476 247.660 C 229.494 250.789,230.827 254.033,232.104 256.489 C 235.213 262.466,234.763 263.819,229.668 263.822 C 224.706 263.824,223.894 263.061,224.189 258.665 C 224.396 255.571,224.364 255.327,223.395 252.602 C 222.840 251.041,221.540 247.346,220.507 244.392 C 218.172 237.720,217.446 236.232,215.650 234.439 C 213.145 231.938,212.868 231.305,213.118 228.641 C 213.414 225.484,213.044 223.925,209.887 215.014 C 206.394 205.158,205.611 203.630,202.499 200.586 C 199.800 197.947,199.521 197.349,199.798 194.807 C 200.302 190.184,202.912 187.309,205.397 188.639 M82.966 191.183 C 79.716 194.153,78.190 198.677,78.445 204.581 C 78.857 214.124,83.897 219.903,97.156 226.037 C 108.850 231.446,111.098 232.760,114.150 235.969 C 119.784 241.892,119.764 249.531,114.093 258.452 C 111.213 262.982,112.342 263.809,117.757 261.136 C 126.940 256.602,130.077 243.586,124.285 234.051 C 120.909 228.493,117.215 225.741,107.425 221.486 C 92.486 214.995,88.644 211.905,87.389 205.371 C 87.306 204.937,87.302 205.396,87.381 206.392 C 87.840 212.204,90.562 214.825,100.909 219.419 C 115.304 225.810,120.476 229.272,123.750 234.707 C 128.940 243.323,125.823 256.903,117.833 260.488 C 113.610 262.383,113.243 261.275,116.264 255.745 C 119.579 249.677,120.239 246.966,119.298 243.279 C 117.658 236.854,111.892 231.065,104.506 228.428 C 94.152 224.731,83.869 217.611,80.968 212.129 C 77.352 205.294,78.481 195.489,83.388 191.115 C 84.340 190.267,85.030 189.573,84.923 189.573 C 84.815 189.573,83.934 190.298,82.966 191.183 M292.242 194.550 L 291.153 195.735 292.338 194.646 C 293.441 193.632,293.668 193.365,293.427 193.365 C 293.374 193.365,292.841 193.898,292.242 194.550 M289.649 197.551 C 282.409 206.158,279.483 220.192,281.794 235.229 C 284.063 249.993,292.783 261.131,303.696 263.203 C 308.354 264.088,308.251 262.825,303.239 257.594 C 296.955 251.036,293.782 244.828,291.727 235.071 C 290.931 231.291,290.918 219.933,291.706 216.263 C 292.688 211.683,295.116 203.712,296.219 201.439 C 297.451 198.904,296.780 199.561,295.431 202.212 C 294.278 204.477,291.815 210.510,291.206 212.558 C 289.741 217.494,290.223 235.481,291.962 240.758 C 294.399 248.153,296.317 251.172,303.366 258.712 C 306.407 261.965,306.103 263.073,302.388 262.277 C 288.160 259.225,278.837 236.905,283.099 216.099 C 285.070 206.481,287.029 201.397,290.431 197.077 C 291.834 195.297,291.246 195.653,289.649 197.551 M86.989 202.212 C 86.989 203.341,87.046 203.803,87.116 203.239 C 87.186 202.674,87.186 201.750,87.116 201.185 C 87.046 200.620,86.989 201.082,86.989 202.212 M187.912 227.831 C 186.745 228.510,185.488 232.066,185.926 233.448 C 186.237 234.426,187.188 234.546,188.842 233.814 C 191.605 232.592,192.079 231.552,190.811 229.500 C 189.760 227.798,188.859 227.280,187.912 227.831 M189.811 229.147 C 191.439 230.892,190.481 233.022,188.168 232.796 C 186.886 232.670,186.609 230.656,187.686 229.288 C 188.502 228.250,188.946 228.221,189.811 229.147 M49.921 249.270 C 49.921 250.650,49.797 251.856,49.645 251.950 C 49.335 252.142,48.982 250.364,48.977 248.578 C 48.975 247.927,48.831 247.393,48.657 247.393 C 48.241 247.393,48.234 258.129,48.649 259.221 C 49.045 260.261,49.849 260.261,50.245 259.221 C 50.660 258.128,50.653 246.761,50.237 246.761 C 50.053 246.761,49.921 247.808,49.921 249.270 M78.798 251.980 C 78.431 252.540,78.250 253.639,78.186 255.693 C 78.098 258.496,78.141 258.380,78.537 254.748 C 78.918 251.248,79.904 251.154,83.254 254.301 C 84.745 255.700,84.645 255.557,82.788 253.633 C 80.252 251.004,79.612 250.739,78.798 251.980 M176.698 256.792 C 175.985 257.032,176.286 257.420,177.068 257.270 C 178.250 257.044,179.442 259.850,178.968 261.740 C 178.419 263.928,174.189 264.209,173.279 262.117 C 173.011 261.502,172.848 261.349,172.840 261.705 C 172.798 263.655,177.083 264.615,178.819 263.044 C 180.529 261.496,178.704 256.117,176.698 256.792 M49.632 257.329 C 49.791 257.231,49.921 257.642,49.921 258.241 C 49.921 260.005,49.096 259.950,49.046 258.183 C 49.022 257.375,49.080 256.893,49.173 257.111 C 49.267 257.329,49.473 257.428,49.632 257.329 M255.707 257.470 C 252.249 259.642,254.526 264.997,258.578 264.222 C 259.537 264.039,261.300 262.514,261.286 261.880 C 261.280 261.639,261.125 261.729,260.929 262.085 C 259.365 264.929,254.905 264.119,254.519 260.921 C 254.137 257.751,258.637 256.105,260.659 258.675 C 261.009 259.121,261.295 259.350,261.295 259.185 C 261.295 257.532,257.476 256.359,255.707 257.470 M78.362 259.268 C 78.365 259.601,78.511 260.087,78.687 260.348 C 78.922 260.694,78.951 260.566,78.796 259.874 C 78.536 258.712,78.355 258.460,78.362 259.268 M87.683 259.458 C 89.809 262.965,82.572 264.954,79.672 261.661 C 79.037 260.940,78.983 260.922,79.288 261.532 C 80.130 263.218,82.704 263.969,85.940 263.475 C 89.230 262.972,89.866 261.750,87.983 259.558 C 87.234 258.686,87.210 258.678,87.683 259.458 " stroke="none" fill="#9cb4cc" fill-rule="evenodd"></path></g></svg>