<?xml version="1.0" encoding="UTF-8" standalone="no" ?>
<!DOCTYPE svg PUBLIC "-//W3C//DTD SVG 1.1//EN" "http://www.w3.org/Graphics/SVG/1.1/DTD/svg11.dtd">
<svg xmlns="http://www.w3.org/2000/svg" xmlns:xlink="http://www.w3.org/1999/xlink" version="1.1" width="500" height="500" viewBox="0 0 500 500" xml:space="preserve">
<desc>Created with Fabric.js 3.6.3</desc>
<defs>
</defs>
<rect x="0" y="0" width="100%" height="100%" fill="#B9121B"></rect>
<g transform="matrix(3.3080953667518336 0 0 3.308095366751833 250.5 231.99999999999997)"  >
<circle style="stroke: none; stroke-width: 0; stroke-dasharray: none; stroke-linecap: butt; stroke-dashoffset: 0; stroke-linejoin: miter; stroke-miterlimit: 4; fill: rgb(241,114,121); fill-rule: evenodd; opacity: 1;"  cx="0" cy="0" r="47.0059" />
</g>
<g transform="matrix(1.9473135489970228 0 0 1.9278625315982558 250 231.99999999999994)"  >
<g style=""   >
		<g transform="matrix(0.5338515309406816 0 0 0.5338515309406816 -27.920076688485214 0.19330850094908314)"  >
<path style="stroke: none; stroke-width: 1; stroke-dasharray: none; stroke-linecap: butt; stroke-dashoffset: 0; stroke-linejoin: miter; stroke-miterlimit: 4; fill: rgb(185,18,27); fill-rule: nonzero; opacity: 1;"  transform=" translate(-74.77670809490493, -89.33951)" d="m 95.745929 62.69857 l -0.01685 -12.53955 l -41.90426 33.033268 c 0.06 3.9 -0.06001 8.394444 -0.000015 12.294444 L 95.729075 128.52 L 95.695368 115.86639 L 61.301123 89.394063 z" stroke-linecap="round" />
</g>
		<g transform="matrix(-0.5338515309406816 0 0 0.5338515309406816 27.920078018899133 -0.340542390669043)"  >
<path style="stroke: none; stroke-width: 1; stroke-dasharray: none; stroke-linecap: butt; stroke-dashoffset: 0; stroke-linejoin: miter; stroke-miterlimit: 4; fill: rgb(185,18,27); fill-rule: nonzero; opacity: 1;"  transform=" translate(-74.77670809490493, -89.33951)" d="m 95.745929 62.69857 l -0.01685 -12.53955 l -41.90426 33.033268 c 0.06 3.9 -0.06001 8.394444 -0.000015 12.294444 L 95.729075 128.52 L 95.695368 115.86639 L 61.301123 89.394063 z" stroke-linecap="round" />
</g>
		<g transform="matrix(-0.63932257 0 0 0.63932257 -0.5381762792997762 -0.31966138416622414)"  >
<path style="stroke: none; stroke-width: 1; stroke-dasharray: none; stroke-linecap: butt; stroke-dashoffset: 0; stroke-linejoin: miter; stroke-miterlimit: 4; fill: rgb(185,18,27); fill-rule: nonzero; opacity: 1;"  transform=" translate(-61.924871499999995, -50.90955399999999)" d="m 48.915576 18.003341 l -10.94178 0 l 35.24437 65.812426 l 12.657781 0" stroke-linecap="round" />
</g>
</g>
</g>
<g transform="matrix(1 0 0 1 250.49999999990638 414.7499999999999)" style=""  ><path fill="#ffffff" opacity="1" d="M-19.66-6.19L-24.14-6.19L-23.90-4.53L-23.90 5.65L-20.20 5.65C-16.85 5.65-14.71 3.03-14.71-0.34C-14.71-4.35-17.15-6.19-19.66-6.19ZM-19.98-4.89C-17.93-4.89-16.45-2.77-16.45-0.23C-16.45 2.27-17.93 4.36-19.98 4.36L-22.28 4.36L-22.28-4.89Z"/><path fill="#ffffff" opacity="1" d="M-12.46-5.88C-12.46-5.38-12.04-4.91-11.52-4.91C-11.03-4.91-10.60-5.38-10.60-5.88C-10.60-6.39-11.03-6.82-11.52-6.82C-12.04-6.82-12.46-6.39-12.46-5.88ZM-10.67-3.40L-12.42-3.20L-12.19-1.55L-12.19 5.65L-10.49 5.65L-10.67 4.30Z"/><path fill="#ffffff" opacity="1" d="M-4.55 3.53C-2.74 3.53-1.01 2.34-1.01-0.12C-1.01-0.81-1.22-1.51-1.60-1.98L-0.16-1.98L0.20-3.20L-2.16-3.20L-2.48-2.97C-2.48-2.97-3.02-3.47-4.19-3.47C-6.41-3.47-7.92-1.94-7.92 0.13C-7.92 1.28-7.40 2.25-6.66 2.85C-7.02 3.17-7.67 3.91-7.67 4.66C-7.67 7.80-1.94 5.26-1.94 7.45C-1.94 8.25-3.06 8.88-4.39 8.88C-5.53 8.88-6.77 8.39-7.22 7.09L-8.33 8.12C-8.33 8.12-7.85 10.03-4.59 10.03C-2.52 10.03-0.32 8.97-0.32 7.04C-0.32 3.51-6.41 5.76-6.41 4.29C-6.41 4.05-6.26 3.73-5.90 3.28C-5.44 3.46-5.00 3.53-4.55 3.53ZM-6.35 0.04C-6.35-1.28-5.45-2.36-4.45-2.36C-3.44-2.36-2.59-1.28-2.59 0.04C-2.59 1.35-3.44 2.41-4.45 2.41C-5.45 2.41-6.35 1.35-6.35 0.04Z"/><path fill="#ffffff" opacity="1" d="M1.78-5.88C1.78-5.38 2.20-4.91 2.72-4.91C3.20-4.91 3.64-5.38 3.64-5.88C3.64-6.39 3.20-6.82 2.72-6.82C2.20-6.82 1.78-6.39 1.78-5.88ZM3.56-3.40L1.82-3.20L2.05-1.55L2.05 5.65L3.74 5.65L3.56 4.30Z"/><path fill="#ffffff" opacity="1" d="M8.77-5.02L7.07-4.82L7.07-3.20L5.98-3.20L5.98-1.98L7.07-1.98L7.07 3.15C7.07 5.13 8.05 5.89 9.22 5.89C10.04 5.89 11.00 5.69 11.77 5.08L11.52 3.71C11.05 4.16 10.26 4.45 9.58 4.45C9.02 4.45 8.59 4.14 8.59 3.30L8.59-1.98L10.80-1.98L11.34-3.20L8.59-3.20Z"/><path fill="#ffffff" opacity="1" d="M13.91-0.90C13.91-0.90 14.81-2.25 16.47-2.25C17.21-2.25 17.82-1.76 17.82-0.32L17.82 0.33C14.85 0.33 12.76 1.66 12.76 3.66C12.76 4.99 13.86 5.89 15.08 5.89C16.20 5.89 17.46 5.15 17.95 4.41C17.96 5.20 18.47 5.89 18.47 5.89L20.14 5.65C20.14 5.65 19.33 4.70 19.33 3.62L19.33-1.15C19.33-2.84 18.04-3.45 16.63-3.45C14.26-3.45 13.10-2.07 13.10-2.07ZM15.75 4.59C14.80 4.59 14.38 3.96 14.38 3.39C14.38 1.55 17.35 1.50 17.82 1.48L17.82 3.48C17.46 3.89 16.54 4.59 15.75 4.59Z"/><path fill="#ffffff" opacity="1" d="M24.21-7.94L22.46-7.74L22.70-6.08L22.70 5.65L24.39 5.65L24.21 4.30Z"/></g><g transform="matrix(0.48223350253807107 0 0 0.07868020304568528 250.5 314)"  >
<rect style="stroke: none; stroke-width: 1; stroke-dasharray: none; stroke-linecap: butt; stroke-dashoffset: 0; stroke-linejoin: miter; stroke-miterlimit: 4; fill: rgb(185,18,27); fill-rule: evenodd; opacity: 1;"  x="-393.5" y="-393.5" rx="0" ry="0" width="787" height="787" />
</g>
<g transform="matrix(1 0 0 1 250.5028489793894 315.3399999999999)" style=""  ><path fill="#ffffff" opacity="1" d="M-47.52 11.31L-47.52-15.69L-37.84-15.69L-37.84-14.65L-46.33-14.65L-46.33 0.04L-39.24 0.04L-39.24 1.09L-46.33 1.09L-46.33 10.27L-37.84 10.27L-37.84 11.31L-47.52 11.31Z"/><path fill="#ffffff" opacity="1" d="M-34.24 11.31L-34.24-15.69L-33.08-15.69Q-27.04-15.69-23.33-11.71Q-19.62-7.73-19.62-2.17Q-19.62 3.39-23.31 7.35Q-27.00 11.31-33.08 11.31L-33.08 11.31L-34.24 11.31ZM-32.80-14.61L-32.80-14.61L-33.08-14.61L-33.08 10.19L-32.80 10.19Q-27.54 10.19-24.17 6.56Q-20.81 2.92-20.81-2.17Q-20.81-7.27-24.17-10.94Q-27.54-14.61-32.80-14.61Z"/><path fill="#ffffff" opacity="1" d="M-7.06 11.81L-7.06 11.81L-7.42 11.81Q-10.73 11.81-13.01 9.51Q-15.30 7.21-15.30 3.71L-15.30 3.71L-15.30-15.69L-14.11-15.69L-14.11 3.68Q-14.11 6.74-12.13 8.75Q-10.15 10.77-7.24 10.77Q-4.32 10.77-2.36 8.77Q-0.40 6.77-0.40 3.68L-0.40 3.68L-0.40-15.69L0.79-15.69L0.79 3.64Q0.79 7.17-1.49 9.49Q-3.78 11.81-7.06 11.81Z"/><path fill="#ffffff" opacity="1" d="M19.33 11.71L19.33 11.71L18.94 11.71Q15.23 11.71 12.02 9.76Q8.82 7.82 6.97 4.60Q5.11 1.37 5.11-2.26L5.11-2.26Q5.11-7.99 9.25-12.11Q13.39-16.23 19.15-16.23L19.15-16.23Q23.00-16.23 26.46-14.21L26.46-14.21L26.46-12.88Q23.08-15.19 19.15-15.19L19.15-15.19Q13.86-15.19 10.08-11.39Q6.30-7.59 6.30-2.28Q6.30 3.03 10.08 6.85Q13.86 10.66 19.15 10.66L19.15 10.66Q23.08 10.66 26.46 8.36L26.46 8.36L26.46 9.69Q23.18 11.71 19.33 11.71Z"/><path fill="#ffffff" opacity="1" d="M31.32 11.31L31.32-15.69L32.87-15.69Q36.36-15.69 39.01-13.12Q41.65-10.54 41.65-7.07Q41.65-3.59 38.95-1.04Q36.25 1.52 33.16 1.52L33.16 1.52L32.90 1.52L42.19 11.31L40.64 11.31L32.47 2.74L32.47 11.31L31.32 11.31ZM32.47-14.65L32.47 0.47L33.12 0.47Q36.04 0.47 38.27-1.76Q40.50-3.99 40.50-7.05Q40.50-10.11 38.20-12.38Q35.89-14.65 32.94-14.65L32.94-14.65L32.47-14.65Z"/><path fill="#ffffff" opacity="1" d="M46.15 11.31L46.15-15.69L47.34-15.69L47.34 11.31L46.15 11.31Z"/></g></svg>